<?xml version="1.0" encoding="utf-8"?>
<!-- Generator: Adobe Illustrator 16.0.0, SVG Export Plug-In . SVG Version: 6.00 Build 0)  -->
<!DOCTYPE svg PUBLIC "-//W3C//DTD SVG 1.1//EN" "http://www.w3.org/Graphics/SVG/1.1/DTD/svg11.dtd">
<svg version="1.1" xmlns="http://www.w3.org/2000/svg" xmlns:xlink="http://www.w3.org/1999/xlink" x="0px" y="0px"
	 width="841.89px" height="595.28px" viewBox="0 0 841.89 595.28" enable-background="new 0 0 841.89 595.28" xml:space="preserve">
<g id="Layer_1">
	<g>
		<g>
			<path fill="#971915" d="M180.048,201.938v-15.51c0-0.477,0.595-1.073,1.312-1.073h54.284c1.072,0,1.552,0.597,1.313,1.551
				l-23.265,57.982h-19.565l16.701-41.757h-29.468C180.643,203.131,180.048,202.535,180.048,201.938z M237.195,264.215v15.509
				c0,0.478-0.597,1.075-1.432,1.075h-54.165c-1.195,0-1.671-0.597-1.314-1.551l6.564-16.107h49.034
				C236.716,263.141,237.195,263.619,237.195,264.215z"/>
			<path fill="#971915" d="M357.808,202.893l-29.706,77.189c-0.358,0.955-1.91,0.955-2.268,0l-26.962-70.748l-26.964,70.748
				c-0.358,0.955-1.907,0.955-2.267,0l-29.588-77.189h18.611l12.051,32.808l18.969-49.631c0.12-0.477,0.599-0.715,1.075-0.715
				h16.225c0.477,0,0.952,0.238,1.193,0.715l18.849,49.631l12.169-32.808H357.808z"/>
			<path fill="#971915" d="M374.743,280.799v-50.107v-28.992v-16.345h18.255v16.345v28.992v50.107H374.743z"/>
			<path fill="#971915" d="M486.173,186.428v93.296c0,0.478-0.479,1.075-1.313,1.075H469.11c-0.239,0-0.954-0.12-1.074-0.358
				l-43.902-62.873v40.324h-18.255v-71.464c0-0.477,0.597-1.073,1.194-1.073h15.865c0.24,0,0.955,0.121,1.076,0.356l44.021,62.875
				v-62.158c0-0.477,0.598-1.073,1.432-1.073h15.392C485.694,185.354,486.173,185.951,486.173,186.428z"/>
			<path fill="#971915" d="M570.516,186.428v93.296c0,0.478-0.478,1.075-1.313,1.075h-15.749c-0.238,0-0.953-0.12-1.072-0.358
				l-43.905-62.873v40.324h-18.253v-71.464c0-0.477,0.598-1.073,1.193-1.073h15.866c0.24,0,0.955,0.121,1.075,0.356l44.023,62.875
				v-62.158c0-0.477,0.597-1.073,1.432-1.073h15.39C570.038,185.354,570.516,185.951,570.516,186.428z"/>
			<path fill="#971915" d="M648.416,280.799h-16.464c-0.357,0-0.955-0.239-1.074-0.716l-18.85-53.209l-18.611,53.209
				c-0.12,0.478-0.717,0.716-1.193,0.716h-16.345c-1.074,0-1.551-0.716-1.193-1.433l36.149-93.296c0.358-0.953,2.029-0.953,2.386,0
				l36.268,93.296C649.848,280.083,649.251,280.799,648.416,280.799z"/>
			<path fill="#971915" d="M272.443,387.932V329.59c0-0.477,0.597-1.073,1.312-1.073h15.75c0.715,0,1.191,0.597,1.191,1.073v58.342
				H272.443z M325.294,407.378v15.508c0,0.477-0.477,1.075-1.312,1.075h-50.228c-0.715,0-1.312-0.599-1.312-1.075v-16.701h18.253
				h33.286C324.817,406.185,325.294,406.779,325.294,407.378z"/>
			<path fill="#971915" d="M374.086,423.961c-30.9,0-46.051-23.982-46.051-47.843c0-23.742,15.15-47.602,46.051-47.602
				c30.425,0,45.813,23.859,45.813,47.602C419.899,399.979,404.511,423.961,374.086,423.961z M374.086,345.338
				c-18.729,0-28.036,15.51-28.036,31.14c0,15.389,9.307,30.778,28.036,30.778c18.494,0,27.918-15.39,27.918-30.778
				C402.004,360.848,392.58,345.338,374.086,345.338z M373.968,385.425c-5.011,0-8.947-4.058-8.947-8.947
				c0-5.012,3.937-9.069,8.947-9.069s8.947,4.058,8.947,9.069C382.915,381.367,378.979,385.425,373.968,385.425z"/>
			<path fill="#971915" d="M497.206,376.236c0,40.802-32.094,47.725-55.836,47.725h-15.628c-0.717,0-1.312-0.599-1.312-1.075
				v-37.461h18.253v20.996c11.571,0.48,36.148-0.713,36.148-30.185c0-22.666-15.392-31.376-36.148-30.3v21.116h-18.253V329.59
				c0-0.477,0.595-1.073,1.312-1.073h15.628C464.634,328.517,497.206,333.883,497.206,376.236z"/>
			<path fill="#971915" d="M500.899,345.1v-15.51c0-0.477,0.598-1.073,1.313-1.073h54.283c1.073,0,1.55,0.597,1.313,1.55
				l-23.264,57.983h-19.567l16.703-41.755h-29.468C501.497,346.295,500.899,345.696,500.899,345.1z M558.046,407.378v15.508
				c0,0.477-0.595,1.075-1.43,1.075h-54.165c-1.192,0-1.671-0.599-1.313-1.552l6.562-16.106h49.034
				C557.569,406.303,558.046,406.779,558.046,407.378z"/>
			<path fill="#971915" d="M311.292,361.433l-4.911,14.711c-0.15,0.456-0.904,0.832-1.695,0.567l-51.38-17.146
				c-1.132-0.381-1.395-1.098-0.752-1.888l11.323-13.2l46.513,15.525C311.182,360.265,311.482,360.869,311.292,361.433z"/>
		</g>
		<polygon fill="#1D434E" points="786.444,336.877 766.255,336.877 766.255,150.583 580.574,150.583 580.574,130.394 
			786.444,130.394 		"/>
		<polygon fill="#1D434E" points="264.889,470.551 61.465,470.551 61.465,264.07 81.654,264.07 81.654,450.361 264.889,450.361 		
			"/>
	</g>
</g>
<g id="Layer_2">
</g>
</svg>
