<?xml version="1.0" encoding="utf-8"?>
<!-- Generator: Adobe Illustrator 20.1.0, SVG Export Plug-In . SVG Version: 6.00 Build 0)  -->
<svg version="1.1" id="Layer_1" xmlns="http://www.w3.org/2000/svg" xmlns:xlink="http://www.w3.org/1999/xlink" x="0px" y="0px"
	 viewBox="0 0 100 133" style="enable-background:new 0 0 100 133;" xml:space="preserve">
<style type="text/css">
	.st0{fill:none;stroke:#000000;stroke-linejoin:round;stroke-miterlimit:10;}
</style>
<g id="Layer_2">
</g>
<g id="Calque_3">
</g>
<path class="st0" d="M35.1,53.7c0,0,9.9,3.4,4.5,16.8"/>
<path class="st0" d="M37.2,74.1c-1.8,3.1,1.8,1.2,1.8,1.2s5,5.2,8.4-0.8c0,0,2.3,2.5,3.2,0.6c0,0,0.8-1.8-1.2-2.1"/>
<path class="st0" d="M14.8,113c-1.6-3.6,4.2-12.2-0.7-19.5c-3.9-5.8-3.4-16.8-1.5-23.4c1.4-7-1-16.4-1-16.4
	c-1.4-8.4,3.9-17.9,3.9-17.9c7-31.5,30.6-27.6,30.6-27.6s28.2-4.9,39.7,27.1c16.3,35.2,1.8,62.8,5.4,80.6"/>
<path class="st0" d="M75.1,82.3c-3.7,11.7-11.3,23.8-33.3,23.6c-6.1,0-7.7-3.1-12.4-8.4c-7.7-7.9-10-29-10-26.8
	c0-5,1.7-10.8,1.7-10.8c-3.1-17.1,17.1-36.8,17.1-36.8c3.4,11-8.4,21.1-8.4,21.1C42.6,38.6,45.4,24,45.4,24
	c1.1,13,6.6,19.7,9.4,25.7s17.6,6.4,17.6,6.4s1.4,10.3,2.5,21.4c0.9,8.9-0.6,17.4-6.2,24.2c-4.4,5.3-3.7,10.3-4.9,14.2"/>
<path class="st0" d="M76.6,71.8"/>
<path class="st0" d="M54.2,76.5c0,0,2.9,5.7,5.7,8.3"/>
<path class="st0" d="M33.1,78.3c0,0-0.1,2.7-2.1,4.8"/>
<path class="st0" d="M33.4,51.1c-0.8-0.2-1.8-0.2-2.9-0.3c-5.7,0-7.7,3.3-7.9,4.6c0,0,4-3.1,10.1-2.4c0.8,0.2,1.6,0.4,2.5,0.6
	c0,0,1.2-1.8-1.9-2.6"/>
<path class="st0" d="M34.5,85.4c1.9-0.1,4.8-2,7.7-0.7c1.7-0.7,3.2-0.5,7.6,0.9c2,0.3,3.5,0,5.1-0.1c-6.9,2.3-10.4,1.2-13.5,1.3
	C38.1,86.3,35.8,86.1,34.5,85.4z"/>
<path class="st0" d="M37.1,88.7c3.3,0.7,6.9,0.9,9.3,0.7"/>
<path class="st0" d="M25.5,59.3c5.1,2.5,13.7,0.9,13.7,0.9s-1.9-0.2-3.3-1.9c-1.3-1.4-2.7-1.2-4.4-1.4
	C28.6,57.3,25.5,59.3,25.5,59.3z"/>
<path class="st0" d="M33.9,57.1c0.8,1.4,0.4,2.9-0.8,3.6"/>
<path class="st0" d="M29.4,57.4c-0.5,0.5-0.7,1.9,0.2,3.1"/>
<path class="st0" d="M56.5,56.3c-1.6,0.3-2.9,0-4,1.4c-1.4,1.8-3.1,2-3.1,2s8.8,1.6,13.5-1.1C62.9,58.7,59.3,56.7,56.5,56.3z"/>
<path class="st0" d="M54.7,60.2c-1.1-0.7-1.3-2.1-0.5-3.5"/>
<path class="st0" d="M58.8,57c0.6,0.6,1.1,1.7,0.1,2.9"/>
<path class="st0" d="M55.5,50.8c-4.3,0.7-4.7,2.9-4.7,2.9c0.5-0.5,4.8-1.1,7.3-0.8"/>
</svg>
