<?xml version="1.0" encoding="UTF-8"?>
<svg id="Layer_2" data-name="Layer 2" xmlns="http://www.w3.org/2000/svg" viewBox="0 0 700 900">
  <defs>
    <style>
      .cls-1 {
        fill: none;
        stroke: #000;
        stroke-linejoin: bevel;
        stroke-width: 5px;
      }
    </style>
  </defs>
  <path class="cls-1" d="m297.91,722.89s23.66,28.66,84.14,28.66,71.14-13.25,87.82-26.91c21.21-17.36,38.21-28.5,61.08-62.04,22.87-33.54,27.44-86.9,39.64-112.82s25.92-96.05,18.3-132.64c-7.62-36.59-21.34-137.21-51.84-181.43-30.49-44.21-91.48-79.28-161.61-76.23-70.13,3.05-155.51,56.41-181.43,128.07-25.92,71.66-16.77,91.48-21.34,123.49-4.57,32.02-7.62,74.71,9.15,114.34,16.77,39.64,41.67,112.52,56.69,135.74,15.03,23.21,59.39,61.77,59.39,61.77Z"/>
  <path class="cls-1" d="m315.12,361.86c-24.92-12.21-68.65-20.15-88.58-16.92-26.5,4.29-37.69,25.18-36.08,25.43,3.39.54,8.51-10.52,42.02-12.44,32.55-1.86,73.28,18.76,81.69,21.51,6.64,2.17,5.09-15.55.95-17.58Z"/>
  <path class="cls-1" d="m431.04,361.49s20.83-15.88,50.5-17.7c25.09-1.55,30.83,2.08,38.58,4.33,6.1,1.77,16.42,4.8,25.48,11.26l9.06,6.46s15.93,13.76,15.57,14.37-39.88-14.87-45.74-15.53c0,0-18.17-3.19-29.71-2.51-11.73.69-29,1.09-44.04,7.75-11.26,4.99-14.6,3.56-14.6,3.56l-5.09-11.99Z"/>
  <path class="cls-1" d="m279.48,404.09c-8.11-1.86-15.63-1.6-25.26.56-12.9,2.89-24.87,9.14-26.2,14.99s22.64,15.8,32.71,19.15c10.07,3.34,21.28,1.25,27.12.8s41.57-3.23,41.08-3.19c0,0-8.64-9.97-17.02-16.09-8.38-6.12-24.33-14.36-32.44-16.22Z"/>
  <path class="cls-1" d="m435.53,432.94c-.68-.81,24.73-19.94,27.52-21.54,2.79-1.6,15.16-10.77,27.12-9.97,11.97.8,26.48,4.67,29.92,5.98,4.19,1.6,11.17,5.14,12.36,9.75,1.2,4.61-12.68,12.74-13.96,13.39-1.65.83-17.31,6.53-31.51,5.85-17.33-.83-34.48-2.03-34.48-2.03l-13.39-.63s-2.91.01-3.59-.8Z"/>
  <polyline class="cls-1" points="386.46 463.4 386.46 501.15 386.46 531.9"/>
  <path class="cls-1" d="m359.7,617.6c10.16,1.61,16.72,4.91,25.75,4.77,6.35-.1,13.62-1.75,15.02-1.98s6.08-1.13,7.48-1.4,13.83-2.63,16.76-3.04c5.04-.71,9.83-1.15,14.32-1.4,3.55.01,8.71.04,14.97.13,14.98.22,16.77.69,17.26,1.27,1.28,1.51-20.04,8.39-20.04,8.39-3.38,1.37-7.08,2.7-11.09,3.93-5.47,1.67-10.6,2.85-15.27,3.7-6.59,1.34-13.18,2.68-19.77,4.03-7.63.8-14.08,1.12-18.94,1.25-5.49.15-9.82.26-15.63-.22-5.53-.46-10.1-1.26-13.36-1.93l-21.51-3.76c-12.23-1.95-43.02-12.95-40.49-12.58,2.53.37,17.66,2.8,27.44,1.63,9.79-1.17,20.74-2.33,22.83-2.8,8.65-.69,9.79-.69,14.27.02Z"/>
  <path class="cls-1" d="m612.96,849.2l10.66-129.3s-3.46-75.43,10.17-163.5c13.63-88.08,18.52-144.57,14.68-212.73-3.84-68.16-18.95-86.33-35.51-115.34-16.57-29.01-82.97-96.47-82.97-96.47,0,0-83.18-58.37-126.87-61.86-43.69-3.5-102.15,7.17-113.33,10.58-4.81,1.47,4.97-.78,0,0-13.94,2.18-115.41,46.08-113.99,48.52.69,1.18.97-.97,0,0-6.71,7.15-43.26,37.84-76.75,103.43,0,0-34.47,75.49-43.91,126.87,0,0-30.69,133.96-14.68,212.6,0,0,12.08,268.81,8.16,277.2"/>
  <path class="cls-1" d="m525.51,670.32c.76,19.92-19.97,125.97-3.91,178.88"/>
  <path class="cls-1" d="m238.52,661.13s15.7,34.85,9.41,86.23c0,0,.32,70.84-8.13,101.84"/>
  <path class="cls-1" d="m272.9,581.13s-15.06,12.91-11.34,23.17c0,0,4.05,9.93,8.38,13.3"/>
  <path class="cls-1" d="m507.98,599.36s17.55-27.56-6.27-32.68"/>
  <path class="cls-1" d="m505.44,404.74c6.14,21.84-3.26,28.92-10.54,31.45"/>
  <path class="cls-1" d="m480.9,436.05c-4.15-.6-12.74-8.21-13.01-18.47-.27-10.26,9.64-14.26,11.33-14.53"/>
  <path class="cls-1" d="m283.93,405.44c7.62,3.19,11.47,6.92,11.47,17.03"/>
  <path class="cls-1" d="m295.39,420.55c0,10.49-5.78,17.48-15.24,19.8"/>
  <path class="cls-1" d="m269.94,440.52c-8.49,0-15.81-12.18-15.04-20.84s7.83-14.38,10.22-16.34"/>
  <path class="cls-1" d="m469.28,617.6c-3.57,4.16-8.75,9.92-15.36,16.44-9.02,8.89-13.75,13.55-20.82,17.77-9.4,5.61-14.29,6.64-22.67,8.29-5.95,1.18-26.07,4.68-47.46,1.06-11.48-1.94-24.59-5.71-40.68-17.12-9.83-6.97-18.89-13.58-22.83-19.11-1.44-2.06-2.87-4.13-4.31-6.19"/>
  <path class="cls-1" d="m331.25,549.85s.65,11.7,8.4,12.52c7.75.81,6.19-7.64,26.4,4.94,13.1,8.16,21.61,11.18,29.18,5.76,4.44-3.18,15.96-20.97,28.66-14.2,12.7,6.77,17.17-9.3,15.38-13.63"/>
</svg>