<?xml version="1.0" encoding="UTF-8"?>
<svg id="Layer_2" data-name="Layer 2" xmlns="http://www.w3.org/2000/svg" viewBox="0 0 700 900">
  <defs>
    <style>
      .cls-1 {
        fill: none;
        stroke: #000;
        stroke-linejoin: bevel;
        stroke-width: 5px;
      }
    </style>
  </defs>
  <path class="cls-1" d="m285.03,358.31c-26.52-13-58.13-7.15-79.35-3.72-28.2,4.56-40.64,32.21-38.93,32.48,3.6.58,7.23-12.09,42.9-14.13,19.85-1.14,80.73,1.91,74.89,0,7.06,2.31,4.9-12.47.5-14.63Z"/>
  <path class="cls-1" d="m368.4,357.89s13.07-7.76,44.63-9.71c26.7-1.64,30.43,2.6,38.68,5,6.49,1.88,18.62,9.73,28.27,16.61s11.9,19.59,11.9,19.59c0,0,.3-.69,0,0-.74,1.69-14.68-9.58-25.44-14.96-8.06-2.35-28.65-8.89-39.58-7.78-12.44,1.26-30.79,1.31-46.87,8.25-10.2,4.41-11.11.34-11.11.34l-.5-17.35Z"/>
  <path class="cls-1" d="m363.56,429.34c-.72-.86,26.86-19.79,29.83-21.48,4.59-2.62,8.01-3.68,10.71-4.46,8.99-2.6,16.13-1.6,18.49-1.54,2.94.07,4.65.76,9.48,2.01,6.81,1.76,13.52,5.53,19.09,8.34,7.35,3.71,12.63,8.88,13.89,13.71,1.27,4.91-27.37,5.46-30.19,5.86-1.95.28-7.11,1.24-22.22.52-5.57-.27-8.36-.39-9.91-.47-8.29-.42-14.95-.7-19.24-.87-5.37-.25-10.73-.5-16.1-.75,0,0-3.1.01-3.82-.85Z"/>
  <polyline class="cls-1" points="312.75 405.99 310.76 453.79 309.13 487.82"/>
  <path class="cls-1" d="m266.93,512.18s-2.73,15.38,5.52,16.24,22.32.5,25.62,7.59c3.3,7.09,22.78,8.95,30.84,3.18,4.72-3.38,8.36-17.18,21.87-9.97,13.51,7.21,28.75-8.08,26.84-12.7"/>
  <path class="cls-1" d="m167.49,272.83c8.15-13.6,26-54.2,69.67-72.53,15.44-6.48,28.15-6.42,41.81-8.47,45.19-6.78,60.46,6.99,113.04,5.12,40.17-1.42,42.56-8.51,62.45-2.98,24.62,6.85,48.73,25.45,60.96,50.59,12.56,25.81,9.18,33.15,14.23,72.9,5.7,44.93,14.36,49.4,19.97,87.78,6.18,42.3,1.73,86.05,2.09,103.03.37,16.98.49,59.35-2.68,77.95-3.16,18.6-4.95,21.93-39.56,77.9-24.43,39.51-45.27,67.82-62.45,83.32-17.17,15.5-41.29,28.89-51.4,32.73-10.11,3.84-39.11,19.34-82.42,19.34-43.31,0-89.58-40.54-97.03-50.21-7.45-9.67-62.1-65.4-72.47-86.66-12.3-25.24-15.64-52.53-22.3-107.12-.51-4.13-.78-10.08-.84-18.17,0-1.07.02-6.24.41-13.13.12-2.14.34-5.44.72-9.43.94-9.88,1.68-12.32,3.03-24.03.3-2.6.59-5.56.87-9.2.61-8.15.59-12.38.57-14.33-.07-7.66-.86-10.9.12-23.97.84-11.08,2.99-24.52,8.5-46.96,25.22-102.79,20.82-103.64,32.71-123.49Z"/>
  <path class="cls-1" d="m120.55,523.9s-21.24-169.17-19.51-189.69-2.23-54.68,13.39-72.53,23.06-27.52,33.48-45.75c-8.18-30.13,44.89-81.46,52.2-88.15,7.31-6.7,43.78-44.61,66.39-55.79,22.61-11.18,49.49-11.65,66.89-11.16,17.4.5,74.51-.03,89.17,10.7,14.66,10.73,25.53,22.52,33.02,29.47,7.49,6.94,13.01,23.31,20.54,29.01,7.53,5.7,66.38-3.47,76.38,3.35,10,6.82,18.18,12.81,25,32.36,6.82,19.55,16.74,42.4,22.32,61.37,5.58,18.97,0,0,0,0,0,0,12.77,120.64,10.04,140.6-2.73,19.96-16.37,93.04-17.85,86.51-8.43-6.54-13.14-1.76-23.43,10.86-10.29,12.61-16.08,46.83-16.08,46.83v44.39l-4.97,42.9s-.15,12.4,9.89,6.2c10.04-6.2,18.96-54,16.74-43.52-2.22,10.49,11.99-53.48,11.16-49.97s5.46-22.18,6.7-36.88c1.24-14.7,0-20.8,0-20.8"/>
  <path class="cls-1" d="m190.21,428.5c-1.74-2.92,20.18-27.05,43.74-27.19s21.65,3.79,41.73,14.95c20.09,11.16-42.47,13.64-42.47,13.64,0,0-41.26,1.52-43-1.4Z"/>
  <path class="cls-1" d="m221.3,404.73s-3.54,17.3,3.94,22.39c7.47,5.09,19.37.68,19.37.68,0,0,9.3-16.08,1.68-25"/>
  <path class="cls-1" d="m403.72,403.21c-.96,2.25-8.48,21.71,3.99,29.33"/>
  <path class="cls-1" d="m430.21,432.54s11.92-15.29,4.66-27.94"/>
  <path class="cls-1" d="m120.41,522.78s41.87,64.77,49.81,73.56c7.94,8.8,21.13,33.45,28.67,24.08,8.03-45.32,54.52-78.36,91.85-73.84,41.05,4.97,48.19-5.72,78.36.5,30.16,6.21,64.97,18.6,64.63,41.1-.65,41.99,29.77,55.64,91.34-28.58,15.02-20.54,27.85-46,27.85-46"/>
  <path class="cls-1" d="m238.67,605.14s39.89-10.96,60.26-8.42c15.94,1.99,22.82,2.41,40.55.47,19.54-2.14,53.92,9.9,53.92,9.9,0,0-39.97-.89-51.44.49-12.19,1.46-36.18-.2-47.65-1.14s-55.62-1.3-55.62-1.3Z"/>
  <path class="cls-1" d="m238.67,605.14s37.61,16.03,78.66,16.58c41.05.55,76.06-14.63,76.06-14.63"/>
</svg>