<?xml version="1.0" encoding="utf-8"?>
<!-- Generator: Adobe Illustrator 23.0.1, SVG Export Plug-In . SVG Version: 6.00 Build 0)  -->
<svg version="1.1" xmlns="http://www.w3.org/2000/svg" xmlns:xlink="http://www.w3.org/1999/xlink" x="0px" y="0px"
	 viewBox="0 0 100 133" style="enable-background:new 0 0 100 133;" xml:space="preserve">
<style type="text/css">
	.st0{display:none;}
	.st1{fill:none;stroke:#000000;stroke-miterlimit:10;}
</style>
<g id="head" class="st0">
</g>
<g id="Warstwa_2">
	<path class="st1" d="M62.7,7.2c5.4-2,11.9,0.2,15.7,4.6s5.2,10.5,4.9,16.2S81,39.4,78.8,44.7c-0.5,1.2-1,2.4-1.7,3.4
		c-1.2,1.9-3,3.4-4.1,5.3c1-4.5,2.1-9,2.4-13.7c0.6-8.8-1.8-18.2-8.2-24.2c-2-1.8-7.2-4.1-8.1-6.6C60.2,8.3,61.5,7.7,62.7,7.2z"/>
	<path class="st1" d="M80.3,41.7c1.3,5.5,1.7,11.3,0.6,16.9c-0.8,4.2-2.4,8.3-4.1,12.3c-1.2,2.8-2.4,5.7-2.9,8.8
		c-0.3,2-0.2,4.1-0.3,6.1c-0.4,12.1-5.3,24-13.7,32.7c1.4-3.6,2.7-7.3,4.1-10.9c0.7-1.9,1.4-3.8,1.5-5.8c-0.5,0.5-1,1-1.5,1.5
		c-0.5-1.4,0.4-2.8,1.1-4.1c1.5-2.8,2.3-5.9,2.5-9.1c-0.3,0.8-1.1,1.4-1.9,1.6c1.7-5.2,2.2-10.7,1.7-16.1"/>
	<path class="st1" d="M60.8,7.2C57.2,4.2,51.7,3,47,2.9c-5.7-0.2-10.5,2.4-14.9,5.5c-2.4,1.7-4.8,3.4-6.6,5.7
		c-3.5,4.3-5.3,9.5-6.7,14.7c-4.1,14.9-6.6,30.1-7.4,45.5c-0.9,17.7-2.7,37.5,3.1,54.4c0.2-3.4,1.2-6.7,2.9-9.7
		c0.5,0.2,1,0.4,1.6,0.7c0.9-1.5,0.9-3.2,1.1-4.9s0.8-3.5,2.3-4.4c1.5-0.9,4.2-0.3,4.3,1.4c1.9,0,3.3-2.2,3.5-3.7
		c0.6-7.1,1.7-18.5,2.8-31.7c3,7.9,9.8,20,13,23c-1.6-3.3-5.5-13.8-6.1-16.8c-2-10.4-5.2-15.2-5.7-25.8c-0.6-12,2.9-23.1,6.6-34.6
		c1.3-4.2,2.3-8.7,6.1-11.4c1.6-1.1,3.3-2.3,5.3-2.7c2.1-0.4,4.1,0.6,6.2,0.7C58.9,8.7,60.8,7.2,60.8,7.2z"/>
	<path class="st1" d="M37.1,34.7c0,0,5-0.2,7.2,0.8c0.2,0.1,0.5,0.2,0.6,0.5c0.1,0.2,0.1,0.6-0.2,0.7c-0.1,0-0.2,0-0.3,0
		c-2.1-0.1-4.2-0.2-6.3-0.2c-0.5,0-1.1,0-1.6,0.1"/>
	<path class="st1" d="M70.1,29.5c0-0.2-0.1-0.5-0.3-0.6c-0.2-0.1-0.4-0.1-0.7-0.1c-2.6,0-5.3,0.4-7.6,1.5c-0.3,0.2-0.6,0.3-0.9,0.6
		c-0.3,0.3-0.6,0.7-0.7,1.2c0,0.2,0.1,0.5,0.3,0.6c0.4,0.2,1,0.1,1.5,0c2.8-0.9,5.3-2.3,8.3-2.8C70.1,29.7,70.1,29.6,70.1,29.5z"/>
	<path class="st1" d="M35.8,44c1.9-1,4-1.8,6.1-2.1c2-0.3,4.1-0.3,5.7,0.8"/>
	<path class="st1" d="M59.6,40c2.4-2.8,6.5-4.1,10.1-3c0.6,0.2,1.1,0.4,1.5,0.9"/>
	
		<ellipse transform="matrix(0.9981 -6.182328e-02 6.182328e-02 0.9981 -2.2574 4.1135)" class="st1" cx="65.3" cy="38.5" rx="2" ry="1.7"/>
	<ellipse transform="matrix(0.9911 -0.1328 0.1328 0.9911 -5.4861 5.7584)" class="st1" cx="40.4" cy="44" rx="2" ry="1.7"/>
	<path class="st1" d="M49.5,37.1c1.2,0.7,2,1.9,2.5,3.2c0.5,1.3,0.7,2.7,0.9,4.1c0.2,1.5,0.3,3,0.3,4.6"/>
	<path class="st1" d="M51.4,57.4c0.6,0.2,1.3,0.2,1.8-0.1c0.4-0.1,0.7-0.4,1.1-0.4c0.3,0,0.6,0.1,0.9,0.2c1.1,0.5,2.4,0.8,3.5,0.3
		c0.8-0.4,1.4-1.3,2.3-1.5c0.4-0.1,0.9-0.1,1.2-0.4c0.2-0.2,0.3-0.4,0.4-0.6c0.5-1.5,0.2-3.2-0.9-4.4"/>
	<path class="st1" d="M47.7,65.5c2.2-0.2,4.3-0.6,6.3-1.4c1-0.4,2.1-0.8,3.2-0.9c0.6,0,1.3,0,1.9-0.2c0.4-0.2,0.7-0.5,1-0.7
		c0.4-0.3,1-0.3,1.5-0.4c2.2-0.3,4-0.5,6.2-0.8"/>
	<path class="st1" d="M48.1,65.5c0.8,0.2,1.7,0.3,2.5,0.4c1.4,0.1,2.8-0.1,4.2-0.3c3.5-0.5,8.3-1.5,11.7-3.6"/>
	<path class="st1" d="M49.7,65.8c1.2,0.3,2.5,0.9,3.7,1.3c0.8,0.3,1.5,0.7,2.3,0.9c0.8,0.2,1.6,0.3,2.4,0.3c0.6,0,1.2,0.1,1.9,0
		c1.8-0.3,3.4-1.4,4.6-2.8c0.3-0.3,0.5-0.6,0.7-0.9c0.5-0.7,1.3-2.1,2.1-3.4"/>
	<path class="st1" d="M58.9,71.7c1.3-0.4,2.6-0.8,4-1"/>
	<path class="st1" d="M36,67.5c2.1,2.7,5,4.9,8.1,6.3c1.5,0.7,3.1,1,4.5,1.8c2.3,1.2,4.5,2.9,7.2,3.2c3.2,0.3,6.6-1,9.5-2.2
		c2.7-1.2,4-3.7,5-6.4c0.9-2.7,2.4-5.6,3.1-8.4c0.9-3.6,1.8-8,2.3-11.7"/>
</g>
</svg>
