<?xml version="1.0" encoding="utf-8"?>
<!-- Generator: Adobe Illustrator 20.0.0, SVG Export Plug-In . SVG Version: 6.00 Build 0)  -->
<!DOCTYPE svg PUBLIC "-//W3C//DTD SVG 1.1//EN" "http://www.w3.org/Graphics/SVG/1.1/DTD/svg11.dtd">
<svg version="1.1" id="Layer_1" xmlns="http://www.w3.org/2000/svg" xmlns:xlink="http://www.w3.org/1999/xlink" x="0px" y="0px"
	 viewBox="0 0 100 133" style="enable-background:new 0 0 100 133;" xml:space="preserve">
<style type="text/css">
	.st0{fill:none;stroke:#000000;stroke-miterlimit:10;}
</style>
<path class="st0" d="M42.6,84l2,1.6c1.4,0.9,4.1,0.6,7.1,0.6c4.1,0,7.6-2.3,7.6-2.3"/>
<path class="st0" d="M49.4,4.5c-3.9-1.6-16.5-1.3-23,3.7c-6.6,5.1-9.7,4.9-12.1,19.8C8,30.1,3.8,40.8,3.1,42.6s-2.7,15.2-2,16
	c1.4,1.7,1.2,9.3,0.6,12.5s-0.1,16.8,9.1,19.7c7.5,4.2,8.7,6,8.9,8.7c0.3,2.7,6.6,4.9,6.6,4.9V88.3c0,0-1.2-7-1.7-9.4
	c-0.4,0.1-1.9,0.7-2.9-0.8c-0.9-1.6-6.1-17.5-4.7-19.9c1.5-2.5,4.8,1.7,4.8,1.7l1.9,0.7c0,0-6-14.2-2.9-18.5
	c5.6-1.2,10.3-6.3,10.7-10.5c0.4-4.3-0.2-6.8-0.2-6.8l4.7-3.9c0,0,6.3,1.8,9,1.7C48,22.5,57.4,20,57.4,20l3.6,2.1
	c0,0,5.5,25.7,15,31.7c4.4,2.4,4.6,6,4.6,6l-1.5,16.7l-0.8,8.6l-2.7,6.4l-1.7,9c0,0,4.6,5,11.9,1.4c5.8-2.8,4.5-5.5,4.5-5.5l4.2-2.4
	c0,0-4.2-5.1-3.8-5.9c0.4-0.6,2.2-5.4,2.6-6.8c1-0.5,6-4.3,6-4.3s-1.4-8.7-4.9-11c0,0,2.8-13.9-1.9-23.6c-4.7-9.7-7.5-25.2-13.9-31
	s-18-11.3-23.1-10S49.4,4.5,49.4,4.5z"/>
<path class="st0" d="M49,77.4c0,0-6.1,0.4-6.8,0.6c-0.7,0.2-2.3,0.1-5.7,3.1c-3.4,3-3.5,8.4-3.5,8.4l-0.7,8c0,0,6.1,7.3,9.7,10.2
	c3.7,3,18.5,1.2,18.5,1.2l1.5-1.3l6.6-5.4c0,0-0.3-9.7-1.4-14.6c-1.1-4.9-1.7-6.6-3.2-7.9c-2.1-1.6-5.1-2-5.1-2L49,77.4z"/>
<path class="st0" d="M47.1,54.5c0,0,0.6,1.7,0.9,3.6c0.4,1.9-0.2,6.7-0.4,7.5s-0.7,2.1-0.9,2.8c-0.2,0.7-0.4,2.6,0.3,3.8
	c0.7,1.2,1.3,1.8,1.9,2.2c0.6,0.3,2.2,0.5,2.9,0.3s1.1-1.2,1.7-1.6c0.6-0.4,1-0.9,1.7-0.5s0.7,1.1,1.3,1.2c0.6,0.2,1.9-0.7,1.9-1.9"
	/>
<path class="st0" d="M44.6,69.6c0,0-2.1,1.6-1.5,2.7c0.5,0.9,1.4,1.3,2.2,1.6c0.7,0.4,2.9-0.5,2.9-0.5"/>
<path class="st0" d="M42.8,48.8c0,0-1,1.9-2.6,2.3s-2.7-0.5-5.3-0.2c-2.7,0.3-7.5,1.2-7.5,1.2s0.5-2.6,1.7-2.9c1.2-0.3,9.5-1,11.5-1
	C42.6,48.2,42.8,48.8,42.8,48.8z"/>
<path class="st0" d="M59.9,46.7c-1.4,0.2-3.1,0.4-3.6,0.8c-0.8,0.5-1.4,1.2-1.1,1.4c0.3,0.3,1.2,1.1,2.4,1.1c1.2,0,2.4-1,5.2-1
	c1.6,0,8.7,0.5,8.7,0.5l-1.8-2.7C69.7,46.9,60.9,46.6,59.9,46.7z"/>
<path class="st0" d="M42.1,56.4c-1.3-0.6-2.2-1.9-6.1-2c-2.1,0-5,2.6-5,2.6s2.7,2.1,6,1.7C40.3,58.3,42.1,56.4,42.1,56.4z"/>
<path class="st0" d="M38,54.4c0.4,0.7,1.9,1.9,0.3,3.9"/>
<path class="st0" d="M33.7,55.1c-0.4,0.3-1.1,2.3,0.9,3.4"/>
<path class="st0" d="M58.5,55.2c1.4-1.9,6.6-3.7,10.6-0.7c0,0-2.5,3.1-5.5,2.5C61.4,56.5,58.5,55.2,58.5,55.2z"/>
<path class="st0" d="M61.7,53.3c-0.4,0.7-1.4,2.1,0.4,3.3"/>
<path class="st0" d="M65.4,52.9c0.6,0.8,1.4,1.7,0,4"/>
<line class="st0" x1="32.3" y1="97.5" x2="26.5" y2="88.3"/>
<line class="st0" x1="75.1" y1="94" x2="68.5" y2="102.1"/>
<path class="st0" d="M59.2,84c-1-0.4-3.6-0.3-3.6-0.3l-6.5-0.1c0,0-2.3,0.1-4.2,0.3c-1.9,0.2-3.3,0-3.8,0.5c-1,1.1-1.5,2.1-1.8,3.1
	c-0.3,1-0.3,2.4-0.4,3.8c0,1.4,4.6,6.3,4.6,6.3l0.9-8.3c0,0,3.8-0.4,5.3-0.6c1.6-0.2,5.9,0.5,5.9,0.5l0.9,8.5c0,0,4.9-4.6,5.3-5.9
	c0.4-1.3,0.1-3.7-0.2-4.6C61.1,86.4,60.2,84.4,59.2,84z"/>
<path class="st0" d="M291.5,10c-3.9-1.6-19.2-3-24.4,3.3s-10.4,8.3-12.9,23.3c-6.3,2.1-12.6,10-13.3,11.8
	c-0.7,1.8-2.6,15.1-1.5,16.1c1.1,1,0.6,9.3,0.1,12.5c-0.5,3.2-0.1,16.9,9.2,19.8c7.5,4.2,8.7,6,9,8.7c0.3,2.7,9.4,4.4,9.4,4.4l0-16
	c0,0-1.2-7-1.7-9.5c-0.4,0.1-1.9,0.7-2.9-0.8c-1.1-1.5-6.3-17.5-4.9-19.9c1.5-2.5,4.8,1.7,4.8,1.7l1.9,0.7c0,0-6-14.3-2.9-18.6
	c5.6-1.2,10.4-6.3,10.8-10.6c0.4-4.3-0.3-6.8-0.3-6.8l4.7-3.9c0,0,6.3,1.8,9.1,1.7c2.9-0.1,12.4-2.6,12.4-2.6l3.6,2.1
	c0,0,5.5,25.8,15.1,31.9c4.4,2.4,4.6,6,4.6,6l-1.6,16.8l-0.8,8.6l-2.7,6.4l-1.7,9.1c0,0,1.1,3.9,8.8,3.1s7.4-4.8,7.4-4.8l4.5-2.5
	c0,0-5.8-6.6-5.4-7.4c0.4-0.6,4.9-6.6,5.8-6.9s8.8-4.9,8.8-4.9s-3.6-9.3-5.4-9.9c-1.6-0.5,2.9-15.4-1.8-25.2s-11.6-25.2-18-31.1
	c-6.4-5.9-18.1-11.5-23.2-10.2S291.5,10,291.5,10z"/>
<path class="st0" d="M289.8,82.9c0,0-6.1,0.4-6.8,0.6c-0.7,0.2-2.3,0.1-5.7,3.1c-3.4,3-3.5,8.4-3.5,8.4l-0.7,8c0,0,6.1,7.3,9.8,10.3
	s18.6,1.2,18.6,1.2l1.5-1.3l6.6-5.4c0,0-0.3-9.8-1.4-14.7s-1.7-6.6-3.2-7.9c-2.1-1.6-5.1-2-5.1-2L289.8,82.9z"/>
<path class="st0" d="M288,59.9c0,0,0.6,1.7,0.9,3.6c0.4,1.9-0.2,6.7-0.4,7.5s-0.7,2.1-0.9,2.8s-0.4,2.6,0.3,3.8
	c0.7,1.2,1.3,1.8,1.9,2.2c0.6,0.3,2.2,0.5,2.9,0.3c0.7-0.2,1.1-1.2,1.7-1.6s1-0.9,1.7-0.5c0.7,0.4,0.7,1.1,1.3,1.2
	c0.6,0.2,1.9-0.7,1.9-1.9"/>
<path class="st0" d="M285.5,75.1c0,0-2.1,1.6-1.5,2.7c0.5,0.9,1.4,1.3,2.2,1.6c0.7,0.4,2.9-0.5,2.9-0.5"/>
<path class="st0" d="M283.7,54.1c0,0-1,1.9-2.6,2.3s-2.7-0.5-5.3-0.2c-2.7,0.3-7.5,1.2-7.5,1.2s0.5-2.6,1.7-2.9
	c1.2-0.3,9.6-1,11.6-1S283.7,54.1,283.7,54.1z"/>
<path class="st0" d="M300.9,52.1c-1.4,0.2-3.1,0.4-3.6,0.8c-0.8,0.5-1.4,1.2-1.1,1.4s1.2,1.1,2.4,1.1c1.2,0,2.4-1,5.2-1
	c1.6,0,8.8,0.5,8.8,0.5l-1.8-2.7C310.8,52.2,301.9,51.9,300.9,52.1z"/>
<path class="st0" d="M283,61.8c-1.3-0.6-2.2-1.9-6.1-2c-2.1,0-5,2.6-5,2.6s2.7,2.1,6,1.7C281.3,63.6,283,61.8,283,61.8z"/>
<path class="st0" d="M278.8,59.9c0.4,0.7,1.9,1.9,0.3,3.9"/>
<path class="st0" d="M274.6,60.6c-0.4,0.3-1.1,2.3,0.9,3.4"/>
<path class="st0" d="M299.5,60.6c1.4-1.9,6.6-3.7,10.7-0.7c0,0-2.5,3.1-5.5,2.5C302.4,62,299.5,60.6,299.5,60.6z"/>
<path class="st0" d="M302.7,58.7c-0.4,0.7-1.4,2.2,0.5,3.4"/>
<path class="st0" d="M306.4,58.4c0.6,0.8,1.4,1.7,0,4"/>
<line class="st0" x1="273.2" y1="103.1" x2="267.3" y2="93.9"/>
<line class="st0" x1="316.2" y1="99.6" x2="309.5" y2="107.8"/>
<path class="st0" d="M300.2,89.5c-1-0.4-3.6-0.3-3.6-0.3l-6.5-0.1c0,0-2.3,0.1-4.2,0.3s-3.3,0-3.8,0.5c-1,1.1-1.5,2.1-1.8,3.1
	s-0.3,2.4-0.4,3.8c0,1.4,4.6,6.3,4.6,6.3l0.9-8.3c0,0,3.8-0.4,5.3-0.6c1.6-0.2,5.9,0.5,5.9,0.5l0.9,8.5c0,0,4.9-4.6,5.3-5.9
	c0.4-1.3,0.1-3.7-0.2-4.6C302.1,91.9,301.2,89.9,300.2,89.5z"/>
</svg>
