<?xml version="1.0" encoding="UTF-8"?>
<svg id="Layer_1" data-name="Layer 1" xmlns="http://www.w3.org/2000/svg" width="700" height="900" viewBox="0 0 700 900">
  <defs>
    <style>
      .cls-1 {
        stroke-miterlimit: 10;
      }

      .cls-1, .cls-2 {
        fill: none;
        stroke: #000;
        stroke-width: 6px;
      }

      .cls-2 {
        stroke-linejoin: bevel;
      }
    </style>
  </defs>
  <g>
    <path class="cls-1" d="m272.51656,464.9447s3.73006-2.69026,6.64379-5.18775c2.91373-2.49749,19.7694-15.66842,39.33304-6.51098,19.56363,9.15745,27.69749,15.30771,27.69749,15.30771,0,0-21.03753,16.3271-43.09865,13.41337-14.10321-1.86269-26.22359-11.23868-30.38607-11.65493s-4.38098-3.70244-.1896-5.36743Z"/>
    <path class="cls-1" d="m304.86417,482.18512c-3.95245-3.09958-6.57202-8.52339-6.57202-14.69623,0-8.35499,4.79902-15.33778,11.20656-17.04246"/>
    <path class="cls-1" d="m322.61142,455.15677c2.57801,3.15606,4.17254,7.51613,4.17254,12.33212,0,4.51499-1.40144,8.62925-3.70082,11.72641"/>
    <path class="cls-1" d="m265.62995,414.4309c3.12186-6.69998,43.1963-9.15396,73.67581,1.56093,11.71626,4.11878,26.34009,11.16249,27.02168,16.89803.57664,4.85234-57.43088-14.6341-100.20031-6.82946-3.26196.59525-2.70483-6.89154-.49718-11.6295Z"/>
    <path class="cls-1" d="m195.70037,448.73044c-1.3161-2.2467-4.75395-4.56069-6.93925-8.30692-2.1853-3.74623-9.61904-17.14706-26.7768-19.24679-16.85802-2.06305-33.40386,6.87593-33.40386,6.87593,0,0,7.92364,20.09102,27.0614,24.89183,19.45426,4.88021,31.31732-1.12078,35.68791-.80859,4.3706.31219,5.07074-2.21026,4.3706-3.40546Z"/>
    <path class="cls-1" d="m187.12878,438.79623c-.29084,2.52039,0,9.60662-4.59129,14.8834"/>
    <path class="cls-1" d="m166.74984,454.73505c-4.19362-3.19157-6.95081-8.59644-6.95081-14.72675,0-7.35637,3.97034-13.66809,9.62877-16.36419"/>
    <path class="cls-1" d="m182.68066,398.81608c-6.83175-6.50336-34.5067-21.22425-48.55505-17.16584-3.15006.91002-15.15615,6.20342-9.67775,7.49246,5.30716,1.24874,42.56411,11.68708,59.14861,24.03946,2.07687,1.54689,1.37984-12.18077-.9158-14.36607Z"/>
    <path class="cls-2" d="m143.1156,588.93589s15.50522-1.47992,26.68019-.9211c11.70147.58515,13.94063,7.20998,24.48579,8.4374,9.16103,1.06632,21.12321.2735,26.93245,1.79724,9.52166,2.49749,28.66905,15.79924,42.61334,16.21548,0,0-17.62024,5.11328-29.34545,2.35956-10.84828-2.54777-25.84103-4.13825-30.59419-3.74623-8.46249.69795-16.40559-.73715-23.93423-5.20309-4.86867-2.88807-16.12979-7.99048-23.49425-10.93463-6.16943-2.4664-10.31214-5.28672-13.34366-8.00463Z"/>
    <path class="cls-2" d="m143.1156,588.93589s6.73546,15.03286,11.13462,21.48878c3.84373,5.64081,15.51492,24.52315,33.55995,27.16015,26.43172,3.86259,44.81545-3.9908,54.78858-9.20948,8.16749-4.27383,21.22862-13.91043,21.22862-13.91043"/>
    <path class="cls-1" d="m160.11283,531.18832s-4.20613,10.33448.52892,11.27104c4.73505.93656,8.16329-1.2811,13.02666,2.77732,4.86337,4.05841,1.753,10.02928,13.233,11.45128,10.88533,1.34833,9.33827-6.29653,20.81459-5.61786,8.73773.51672,9.5268,2.90778,13.8974,6.34182,4.3706,3.43404,20.60425,7.18027,18.73114-9.05338"/>
    <path class="cls-1" d="m442.95139,621.72216s16.26295,6.55818,24.66266,5.30716c14.67272-2.1853,17.18871-18.65587,19.04332-24.26555,2.53076-7.65484,4.01598-13.82786,4.01598-13.82786"/>
    <path class="cls-1" d="m473.54558,807.4726c38.71102-48.70096,43.70599-202.29629,0-247.07075-43.70599-44.77446-68.68084-138.79069-70.55395-179.4482-1.87311-40.65751,2.68495-123.97949-28.44871-128.02708-34.57894-4.4955-67.34511-32.02285-93.23944-43.14735-19.74953-8.48462-83.83682,6.70413-102.44153,31.38936-19.06293,25.29322-34.92651,49.34186-36.23314,78.46194-.8028,17.89153-13.50947,49.67058-19.5935,61.32313-5.7976,11.10394.05974,37.96907-3.30011,50.64745-4.66413,17.60006-7.07621,35.98896-9.57369,50.3495-2.49749,14.36054-7.20629,31.89877,1.66499,94.50463,7.28433,51.40657,19.43856,77.62458,31.2891,103.02126,11.16814,23.93423,23.61736,40.4288,47.91155,48.07678,33.1941,10.44954,112.76977-4.99539,158.97285-27.47253,60.97061-29.66134,92.95139-69.61739,92.95139-78.35859"/>
    <path class="cls-1" d="m103.23964,807.4726s13.16558-28.09671-29.91604-168.85609c-43.08162-140.75939,20.44956-162.2739,29.91604-312.53415,12.39733-196.78129,149.75901-192.61882,149.75901-192.61882,0,0,78.81465-80.85579,189.95274-15.29681,111.13808,65.55898,207.29126,312.81,197.92569,413.02158-9.36557,100.21159,0,221.96398-26.22359,276.28428"/>
    <path class="cls-1" d="m474.48214,578.95272s-1.56093,1.95052,0,8.93599c1.56093,6.98547-3.43404,17.91197-3.43404,17.91197"/>
    <path class="cls-1" d="m281.30348,209.77923s-40.80918-27.92662-28.30483-76.31568"/>
  </g>
  <path class="cls-1" d="m339.16779,595.39067s8.55807,23.74244-8.3846,36.77107"/>
</svg>