<?xml version="1.0" encoding="utf-8"?>
<!-- Generator: Adobe Illustrator 23.0.4, SVG Export Plug-In . SVG Version: 6.00 Build 0)  -->
<svg version="1.1" id="head" xmlns="http://www.w3.org/2000/svg" xmlns:xlink="http://www.w3.org/1999/xlink" x="0px" y="0px"
	 viewBox="0 0 100 133" style="enable-background:new 0 0 100 133;" xml:space="preserve">
<style type="text/css">
	.st0{fill:none;stroke:#000000;stroke-miterlimit:10;}
	.st1{fill:none;stroke:#000000;stroke-linejoin:bevel;stroke-miterlimit:10;}
	.st2{fill:#6B6B6B;}
</style>
<ellipse transform="matrix(0.1051 -0.9945 0.9945 0.1051 -33 93.7742)" class="st0" cx="35.6" cy="65.2" rx="2.4" ry="2.5"/>
<path class="st0" d="M89.5,89.5c2.6-5.6,4.5-18.8,3.9-21.4c-0.9-3.2-7.7,1.1-7.7,1.1S79,41.6,74.6,33.9c-4.4-7.8-4.4-8.1-8.2-8.2
	c-3.8-0.1-6.6,4.3-18,3.7c-11.4-0.6-17.9-6.4-23-0.4S12.2,61.2,12.2,69.1c0,0-4.2-2.8-4.5,1.1c-0.3,4,0.7,22.1,8.1,23.5
	c0,0,0.9,14.6,13.1,20.8s25,4.3,25,4.3s25.1-0.6,29.8-25.2C83.7,93.6,87.6,93.5,89.5,89.5z"/>
<path class="st0" d="M9.1,68.1c0,0-1.2-27.1,4.6-36.9S29.9,9.5,50,11.8S77.5,21,81.1,25s13.7,23.2,10.8,42"/>
<path class="st0" d="M40.8,80.2c0,0-1.1,3.9,1.1,3.5c2.2-0.4,2.1-2.4,3.2-2.5c1.1-0.1,2,0,2.1,1.4s1.2,2.8,2.7,2.8s2.2,0,2.6-0.4
	c0.4-0.4,0.9-0.9,1.4-2.9c0.6-2,2.3-1.1,2.4-0.4c0.1,0.7,0.5,2,1.8,2.2c1.3,0.2,2.2-0.3,1.7-3l-0.2-0.8"/>
<path class="st0" d="M35.7,95.9c-0.1,0-0.1-0.1,0-0.1c1.3-0.3,6.9-1.6,9.3-2.9c2.7-1.5,5.6,0.4,5.6,0.4s2.4-2.2,5.5-1.5
	c3,0.8,7.2,1.6,10,1.9C66,93.8,56.3,99.8,35.7,95.9z"/>
<path class="st0" d="M42.9,100.3c0.2,0,6.6,4.9,15.3-0.5"/>
<path class="st0" d="M35.6,86.8c0,0-2.4,4.4-5.3,6.3"/>
<path class="st0" d="M64.9,85.8c0,0,6.5,1.3,5.3,8.7"/>
<path class="st0" d="M44.8,61.2c0,0-0.1,5.9-0.9,8.6c-0.8,2.6-1.8,3.8-4,4.3H23.4c0,0-3.3,0.3-4.5-3.1c-1.2-3.4-2-8.6-1.7-10.1
	l63.5-0.1c0.3,1.5-0.5,6.7-1.7,10.1c-1.2,3.4-4.5,3.1-4.5,3.1H58c-2.2-0.4-3.2-1.7-4-4.3c-0.8-2.6-0.9-8.6-0.9-8.6"/>
<path class="st0" d="M27.8,67.8c0,0,5.1-8.6,14.1-3.4"/>
<ellipse transform="matrix(0.9945 -0.1051 0.1051 0.9945 -6.4947 7.1712)" class="st0" cx="64.8" cy="65.2" rx="2.5" ry="2.4"/>
<path class="st0" d="M72.6,67.8c0,0-5.1-8.6-14.1-3.4"/>
<line class="st0" x1="12.3" y1="66.9" x2="17.2" y2="63.3"/>
<path class="st0" d="M20.4,60.7l11-5.7c0,0,4.5-1.8,7.9-0.7s4,3.5,3.5,3.9c-0.1,0.1-10.7-0.9-19.5,2.5"/>
<line class="st0" x1="85.2" y1="67.2" x2="80.6" y2="63.2"/>
<path class="st0" d="M77.5,60.7L67.8,55c0,0-3.9-1.8-7-0.7c-3,1.1-3.5,3.5-3.1,3.9c0.1,0.1,9.5-0.9,17.3,2.5"/>
</svg>
