<?xml version="1.0" encoding="UTF-8"?>
<svg id="Layer_2" data-name="Layer 2" xmlns="http://www.w3.org/2000/svg" viewBox="0 0 100 133">
  <defs>
    <style>
      .cls-1 {
        fill: none;
        stroke: #000;
        stroke-linejoin: bevel;
      }
    </style>
  </defs>
  <path class="cls-1" d="m43.57,104.08s3.39,4.11,12.06,4.11,10.19-1.9,12.59-3.86c3.04-2.49,5.48-4.08,8.75-8.89,3.28-4.81,3.93-12.45,5.68-16.17s3.71-13.76,2.62-19.01c-1.09-5.24-3.06-19.66-7.43-26-4.37-6.34-13.11-11.36-23.16-10.92-10.05.44-22.28,8.08-26,18.35-3.71,10.27-2.4,13.11-3.06,17.7-.66,4.59-1.09,10.71,1.31,16.39,2.4,5.68,5.97,16.12,8.12,19.45s8.51,8.85,8.51,8.85Z"/>
  <path class="cls-1" d="m46.04,52.34c-3.57-1.75-9.84-2.89-12.69-2.42-3.8.61-5.4,3.61-5.17,3.64.49.08,1.22-1.51,6.02-1.78s10.5,2.69,11.71,3.08c.95.31.73-2.23.14-2.52Z"/>
  <path class="cls-1" d="m62.65,52.29s2.99-2.28,7.24-2.54c3.6-.22,4.42.3,5.53.62.87.25,2.35.69,3.65,1.61l1.3.93s2.28,1.97,2.23,2.06-5.71-2.13-6.55-2.23c0,0-2.6-.46-4.26-.36s-4.16.16-6.31,1.11c-1.61.72-2.09.51-2.09.51l-.73-1.72Z"/>
  <path class="cls-1" d="m40.93,58.39c-1.16-.27-2.24-.23-3.62.08-1.85.41-3.56,1.31-3.75,2.15s3.24,2.26,4.69,2.74,3.05.18,3.89.11,5.96-.46,5.89-.46c0,0-1.24-1.43-2.44-2.31-1.2-.88-3.49-2.06-4.65-2.32Z"/>
  <path class="cls-1" d="m63.29,62.53c-.1-.12,3.54-2.86,3.94-3.09.4-.23,2.17-1.54,3.89-1.43,1.71.11,3.79.67,4.29.86.6.23,1.6.74,1.77,1.4.17.66-1.82,1.83-2,1.92-.24.12-2.48.94-4.52.84-2.48-.12-4.94-.29-4.94-.29l-1.92-.09s-.42,0-.51-.11Z"/>
  <polyline class="cls-1" points="56.26 66.89 56.26 72.3 56.26 76.71"/>
  <path class="cls-1" d="m52.42,88.99c1.46.23,2.4.7,3.69.68.91-.01,1.95-.25,2.15-.28s.87-.16,1.07-.2,1.98-.38,2.4-.44c.72-.1,1.41-.16,2.05-.2.51,0,1.25,0,2.14.02,2.15.03,2.4.1,2.47.18.18.22-2.87,1.2-2.87,1.2-.48.2-1.01.39-1.59.56-.78.24-1.52.41-2.19.53-.94.19-1.89.38-2.83.58-1.09.11-2.02.16-2.71.18-.79.02-1.41.04-2.24-.03-.79-.07-1.45-.18-1.91-.28l-3.08-.54c-1.75-.28-6.16-1.86-5.8-1.8.36.05,2.53.4,3.93.23s2.97-.33,3.27-.4c1.24-.1,1.4-.1,2.04,0Z"/>
  <path class="cls-1" d="m88.72,122.18l1.53-18.53s-.5-10.81,1.46-23.43c1.95-12.62,2.65-20.72,2.1-30.48-.55-9.77-2.72-12.37-5.09-16.53-2.37-4.16-11.89-13.82-11.89-13.82,0,0-11.92-8.36-18.18-8.87-6.26-.5-14.64,1.03-16.24,1.52-.69.21.71-.11,0,0-2,.31-16.54,6.6-16.34,6.95.1.17.14-.14,0,0-.96,1.02-6.2,5.42-11,14.82,0,0-4.94,10.82-6.29,18.18,0,0-4.4,19.2-2.1,30.47,0,0,1.73,38.52,1.17,39.72"/>
  <path class="cls-1" d="m76.18,96.55c.11,2.85-2.86,18.05-.56,25.63"/>
  <path class="cls-1" d="m35.06,95.23s2.25,4.99,1.35,12.36c0,0,.05,10.15-1.17,14.59"/>
  <path class="cls-1" d="m39.98,83.76s-2.16,1.85-1.62,3.32c0,0,.58,1.42,1.2,1.91"/>
  <path class="cls-1" d="m73.67,86.38s2.51-3.95-.9-4.68"/>
  <path class="cls-1" d="m73.31,58.49c.88,3.13-.47,4.14-1.51,4.51"/>
  <path class="cls-1" d="m69.79,62.98c-.59-.09-1.83-1.18-1.86-2.65s1.38-2.04,1.62-2.08"/>
  <path class="cls-1" d="m41.56,58.59c1.09.46,1.64.99,1.64,2.44"/>
  <path class="cls-1" d="m43.21,60.75c0,1.5-.83,2.5-2.18,2.84"/>
  <path class="cls-1" d="m39.56,63.62c-1.22,0-2.27-1.75-2.16-2.99s1.12-2.06,1.47-2.34"/>
  <path class="cls-1" d="m68.13,88.99c-.51.6-1.25,1.42-2.2,2.36-1.29,1.27-1.97,1.94-2.98,2.55-1.35.8-2.05.95-3.25,1.19-.85.17-3.74.67-6.8.15-1.64-.28-3.52-.82-5.83-2.45-1.41-1-2.71-1.95-3.27-2.74-.21-.3-.41-.59-.62-.89"/>
  <path class="cls-1" d="m48.35,79.28s.09,1.68,1.2,1.79.89-1.1,3.78.71c1.88,1.17,3.1,1.6,4.18.83.64-.46,2.29-3,4.11-2.03s2.46-1.33,2.2-1.95"/>
</svg>