<?xml version="1.0" encoding="UTF-8"?>
<svg id="Layer_2" data-name="Layer 2" xmlns="http://www.w3.org/2000/svg" viewBox="0 0 100 133">
  <defs>
    <style>
      .cls-1 {
        fill: none;
        stroke: #000;
        stroke-linejoin: bevel;
      }
    </style>
  </defs>
  <path class="cls-1" d="m41.79,55.33c-3.93-1.93-8.63-1.06-11.77-.55-4.18.68-6.03,4.78-5.78,4.82.53.09,1.07-1.79,6.37-2.1,2.95-.17,11.98.28,11.11,0,1.05.34.73-1.85.07-2.17Z"/>
  <path class="cls-1" d="m54.16,55.27s1.94-1.15,6.62-1.44c3.96-.24,4.52.39,5.74.74.96.28,2.76,1.44,4.19,2.47s1.77,2.91,1.77,2.91c0,0,.04-.1,0,0-.11.25-2.18-1.42-3.77-2.22-1.2-.35-4.25-1.32-5.87-1.15-1.85.19-4.57.19-6.95,1.22-1.51.65-1.65.05-1.65.05l-.07-2.57Z"/>
  <path class="cls-1" d="m53.45,65.87c-.11-.13,3.98-2.94,4.43-3.19.68-.39,1.19-.55,1.59-.66,1.33-.39,2.39-.24,2.74-.23.44.01.69.11,1.41.3,1.01.26,2.01.82,2.83,1.24,1.09.55,1.87,1.32,2.06,2.03.19.73-4.06.81-4.48.87-.29.04-1.06.18-3.3.08-.83-.04-1.24-.06-1.47-.07-1.23-.06-2.22-.1-2.86-.13-.8-.04-1.59-.07-2.39-.11,0,0-.46,0-.57-.13Z"/>
  <polyline class="cls-1" points="45.91 62.41 45.61 69.5 45.37 74.55"/>
  <path class="cls-1" d="m39.11,78.17s-.41,2.28.82,2.41,3.31.07,3.8,1.13,3.38,1.33,4.58.47c.7-.5,1.24-2.55,3.25-1.48s4.27-1.2,3.98-1.88"/>
  <path class="cls-1" d="m24.35,42.65c1.21-2.02,3.86-8.04,10.34-10.76,2.29-.96,4.18-.95,6.2-1.26,6.71-1.01,8.97,1.04,16.77.76,5.96-.21,6.31-1.26,9.27-.44,3.65,1.02,7.23,3.78,9.05,7.51,1.86,3.83,1.36,4.92,2.11,10.82.85,6.67,2.13,7.33,2.96,13.02.92,6.28.26,12.77.31,15.29s.07,8.81-.4,11.57-.73,3.25-5.87,11.56c-3.63,5.86-6.72,10.06-9.27,12.36s-6.13,4.29-7.63,4.86-5.8,2.87-12.23,2.87-13.29-6.02-14.4-7.45-9.21-9.7-10.75-12.86c-1.83-3.74-2.32-7.79-3.31-15.89-.07-.61-.12-1.5-.12-2.7,0-.16,0-.93.06-1.95.02-.32.05-.81.11-1.4.14-1.47.25-1.83.45-3.57.04-.39.09-.83.13-1.36.09-1.21.09-1.84.08-2.13-.01-1.14-.13-1.62.02-3.56.12-1.64.44-3.64,1.26-6.97,3.74-15.25,3.09-15.38,4.85-18.32Z"/>
  <path class="cls-1" d="m17.39,79.9s-3.15-25.1-2.9-28.15-.33-8.11,1.99-10.76,3.42-4.08,4.97-6.79c-1.21-4.47,6.66-12.09,7.75-13.08s6.5-6.62,9.85-8.28,7.34-1.73,9.92-1.66,11.06,0,13.23,1.59,3.79,3.34,4.9,4.37,1.93,3.46,3.05,4.3,9.85-.52,11.33.5,2.7,1.9,3.71,4.8,2.48,6.29,3.31,9.11c.83,2.81,0,0,0,0,0,0,1.89,17.9,1.49,20.86s-2.43,13.81-2.65,12.84c-1.25-.97-1.95-.26-3.48,1.61s-2.39,6.95-2.39,6.95v6.59l-.74,6.37s-.02,1.84,1.47.92,2.81-8.01,2.48-6.46,1.78-7.94,1.66-7.41.81-3.29.99-5.47,0-3.09,0-3.09"/>
  <path class="cls-1" d="m27.72,65.75c-.26-.43,2.99-4.01,6.49-4.03s3.21.56,6.19,2.22-6.3,2.02-6.3,2.02c0,0-6.12.23-6.38-.21Z"/>
  <path class="cls-1" d="m32.34,62.22s-.52,2.57.58,3.32,2.87.1,2.87.1c0,0,1.38-2.39.25-3.71"/>
  <path class="cls-1" d="m59.4,62c-.14.33-1.26,3.22.59,4.35"/>
  <path class="cls-1" d="m63.34,66.35s1.77-2.27.69-4.15"/>
  <path class="cls-1" d="m17.37,79.74s6.21,9.61,7.39,10.92,3.14,4.96,4.25,3.57c1.19-6.73,8.09-11.63,13.63-10.96,6.09.74,7.15-.85,11.63.07s9.64,2.76,9.59,6.1c-.1,6.23,4.42,8.26,13.55-4.24,2.23-3.05,4.13-6.83,4.13-6.83"/>
  <path class="cls-1" d="m34.91,91.96s5.92-1.63,8.94-1.25c2.36.29,3.39.36,6.02.07,2.9-.32,8,1.47,8,1.47,0,0-5.93-.13-7.63.07-1.81.22-5.37-.03-7.07-.17s-8.25-.19-8.25-.19Z"/>
  <path class="cls-1" d="m34.91,91.96s5.58,2.38,11.67,2.46c6.09.08,11.29-2.17,11.29-2.17"/>
</svg>