<svg id="Layer_1" data-name="Layer 1" xmlns="http://www.w3.org/2000/svg" viewBox="0 0 480 480">
  <polygon points="0 0 0 480 360 480 480 360 480 0 0 0" fill="#fff000"/>
  <g>
    <polygon points="312.7 130.56 312.7 154.8 312.7 179.03 312.7 203.26 312.7 227.49 312.7 251.73 336.93 275.96 361.16 275.96 385.39 275.96 409.63 275.96 409.63 251.73 385.39 251.73 361.16 251.73 336.93 251.73 336.93 227.49 336.93 203.26 361.16 203.26 385.39 203.26 385.39 179.03 361.16 179.03 336.93 179.03 336.93 154.8 361.16 154.8 385.39 154.8 409.63 154.8 385.39 130.56 312.7 130.56"/>
    <path d="M215.77,227.32V203.09h48.46v48.47H215.77Zm0-72.69h48.46v24.23H215.77ZM191.53,130.4V275.79h96.93v-72.7l-24.23-24.23h24.23V154.63L264.23,130.4Z" transform="translate(0 0.17)"/>
    <polygon points="94.61 130.56 70.38 154.8 70.38 179.03 70.38 203.26 70.38 227.49 70.38 251.73 70.38 275.96 94.61 275.96 94.61 251.73 94.61 227.49 118.84 227.49 143.07 227.49 143.07 251.73 143.07 275.96 167.3 275.96 167.3 251.73 167.3 227.49 167.3 203.26 167.3 179.03 167.3 154.8 143.07 154.8 143.07 179.03 143.07 203.26 118.84 203.26 94.61 203.26 94.61 179.03 94.61 154.8 118.84 154.8 143.07 154.8 143.07 130.56 94.61 130.56"/>
  </g>
  <polygon points="480 360 360 480 360 360 480 360" fill="#cddc00"/>
</svg>
