<svg height='300px' width='300px'  fill="#000000" xmlns="http://www.w3.org/2000/svg" xmlns:xlink="http://www.w3.org/1999/xlink" version="1.1" x="0px" y="0px" viewBox="0 0 100 100" style="enable-background:new 0 0 100 100;" xml:space="preserve"><path d="M98.8,8H1.2v63.4h28.2l-7.3,18.9l5,1.9l3.5-9.1h38.9l3.5,9.1l5-1.9l-7.3-18.9h28.2V8z M67.4,77.9H32.6l2.5-6.4h29.8  L67.4,77.9z M93.5,66.1H6.6V13.4h86.9V66.1z"></path><path d="M68.2,40.7c-1,0-1.9,0.8-1.9,1.9v12.2H33.7V42.5c0-1-0.8-1.9-1.9-1.9s-1.9,0.8-1.9,1.9v14.1  c0,1,0.8,1.9,1.9,1.9h36.4c1,0,1.9-0.8,1.9-1.9V42.5C70.1,41.5,69.3,40.7,68.2,40.7z"></path><path d="M49,50.9c0.4,0.3,0.8,0.5,1.3,0.5c0.5,0,0.9-0.2,1.3-0.5l7.8-7.3c0.8-0.7,0.8-1.9,0.1-2.6  c-0.7-0.8-1.9-0.8-2.6-0.1l-4.6,4.4V22.8c0-1-0.8-1.9-1.9-1.9c-1,0-1.9,0.8-1.9,1.9v22.5l-4.9-4.5c-0.7-0.7-2-0.6-2.6,0.1  c-0.3,0.4-0.5,0.8-0.5,1.3c0,0.5,0.2,1,0.6,1.3L49,50.9z"></path></svg>